<mxfile host="app.diagrams.net" modified="2022-07-04T06:31:02.848Z" agent="5.0 (Windows)" etag="DNlbgjcziE1akK1OarFH" version="20.0.3" type="github">
  <diagram name="Page-1" id="b520641d-4fe3-3701-9064-5fc419738815">
    <mxGraphModel dx="2650" dy="811" grid="1" gridSize="10" guides="1" tooltips="1" connect="1" arrows="1" fold="1" page="1" pageScale="1" pageWidth="1100" pageHeight="850" background="none" math="0" shadow="0">
      <root>
        <mxCell id="0" />
        <mxCell id="1" parent="0" />
        <mxCell id="21ea969265ad0168-6" value="simdata (Myonardo)" style="swimlane;html=1;fontStyle=0;childLayout=stackLayout;horizontal=1;startSize=26;fillColor=#e0e0e0;horizontalStack=0;resizeParent=1;resizeLast=0;collapsible=1;marginBottom=0;swimlaneFillColor=#ffffff;align=center;rounded=1;shadow=0;comic=0;labelBackgroundColor=none;strokeWidth=1;fontFamily=Verdana;fontSize=12" parent="1" vertex="1">
          <mxGeometry x="200" y="74" width="170" height="366" as="geometry" />
        </mxCell>
        <mxCell id="Bp7dpj_Du3zE_bN5RIQy-93" value="id" style="text;html=1;strokeColor=none;fillColor=none;spacingLeft=4;spacingRight=4;whiteSpace=wrap;overflow=hidden;rotatable=0;points=[[0,0.5],[1,0.5]];portConstraint=eastwest;" vertex="1" parent="21ea969265ad0168-6">
          <mxGeometry y="26" width="170" height="26" as="geometry" />
        </mxCell>
        <mxCell id="21ea969265ad0168-7" value="stream []" style="text;html=1;strokeColor=none;fillColor=none;spacingLeft=4;spacingRight=4;whiteSpace=wrap;overflow=hidden;rotatable=0;points=[[0,0.5],[1,0.5]];portConstraint=eastwest;" parent="21ea969265ad0168-6" vertex="1">
          <mxGeometry y="52" width="170" height="26" as="geometry" />
        </mxCell>
        <mxCell id="21ea969265ad0168-8" value="&lt;span style=&quot;white-space: pre;&quot;&gt;	&lt;/span&gt;- &lt;span style=&quot;white-space: pre;&quot;&gt;&lt;/span&gt;time" style="text;html=1;strokeColor=none;fillColor=none;spacingLeft=4;spacingRight=4;whiteSpace=wrap;overflow=hidden;rotatable=0;points=[[0,0.5],[1,0.5]];portConstraint=eastwest;" parent="21ea969265ad0168-6" vertex="1">
          <mxGeometry y="78" width="170" height="26" as="geometry" />
        </mxCell>
        <mxCell id="Bp7dpj_Du3zE_bN5RIQy-15" value="&lt;span style=&quot;white-space: pre;&quot;&gt;	&lt;/span&gt;- joints&lt;span style=&quot;white-space: pre;&quot;&gt;&lt;/span&gt;" style="text;html=1;strokeColor=none;fillColor=none;spacingLeft=4;spacingRight=4;whiteSpace=wrap;overflow=hidden;rotatable=0;points=[[0,0.5],[1,0.5]];portConstraint=eastwest;" vertex="1" parent="21ea969265ad0168-6">
          <mxGeometry y="104" width="170" height="26" as="geometry" />
        </mxCell>
        <mxCell id="Bp7dpj_Du3zE_bN5RIQy-16" value="&lt;span style=&quot;white-space: pre;&quot;&gt;	&lt;/span&gt;- muscleGroups&lt;span style=&quot;white-space: pre;&quot;&gt;&lt;/span&gt;" style="text;html=1;strokeColor=none;fillColor=none;spacingLeft=4;spacingRight=4;whiteSpace=wrap;overflow=hidden;rotatable=0;points=[[0,0.5],[1,0.5]];portConstraint=eastwest;" vertex="1" parent="21ea969265ad0168-6">
          <mxGeometry y="130" width="170" height="26" as="geometry" />
        </mxCell>
        <mxCell id="Bp7dpj_Du3zE_bN5RIQy-17" value="&lt;span style=&quot;white-space: pre;&quot;&gt;	&lt;/span&gt;- meta&lt;span style=&quot;white-space: pre;&quot;&gt;&lt;/span&gt;" style="text;html=1;strokeColor=none;fillColor=none;spacingLeft=4;spacingRight=4;whiteSpace=wrap;overflow=hidden;rotatable=0;points=[[0,0.5],[1,0.5]];portConstraint=eastwest;" vertex="1" parent="21ea969265ad0168-6">
          <mxGeometry y="156" width="170" height="26" as="geometry" />
        </mxCell>
        <mxCell id="Bp7dpj_Du3zE_bN5RIQy-86" value="constant" style="text;html=1;strokeColor=none;fillColor=none;spacingLeft=4;spacingRight=4;whiteSpace=wrap;overflow=hidden;rotatable=0;points=[[0,0.5],[1,0.5]];portConstraint=eastwest;" vertex="1" parent="21ea969265ad0168-6">
          <mxGeometry y="182" width="170" height="26" as="geometry" />
        </mxCell>
        <mxCell id="Bp7dpj_Du3zE_bN5RIQy-87" value="events" style="text;html=1;strokeColor=none;fillColor=none;spacingLeft=4;spacingRight=4;whiteSpace=wrap;overflow=hidden;rotatable=0;points=[[0,0.5],[1,0.5]];portConstraint=eastwest;" vertex="1" parent="21ea969265ad0168-6">
          <mxGeometry y="208" width="170" height="26" as="geometry" />
        </mxCell>
        <mxCell id="Bp7dpj_Du3zE_bN5RIQy-88" value="body" style="text;html=1;strokeColor=none;fillColor=none;spacingLeft=4;spacingRight=4;whiteSpace=wrap;overflow=hidden;rotatable=0;points=[[0,0.5],[1,0.5]];portConstraint=eastwest;" vertex="1" parent="21ea969265ad0168-6">
          <mxGeometry y="234" width="170" height="26" as="geometry" />
        </mxCell>
        <mxCell id="Bp7dpj_Du3zE_bN5RIQy-89" value="meta" style="text;html=1;strokeColor=none;fillColor=none;spacingLeft=4;spacingRight=4;whiteSpace=wrap;overflow=hidden;rotatable=0;points=[[0,0.5],[1,0.5]];portConstraint=eastwest;" vertex="1" parent="21ea969265ad0168-6">
          <mxGeometry y="260" width="170" height="26" as="geometry" />
        </mxCell>
        <mxCell id="Bp7dpj_Du3zE_bN5RIQy-90" value="signalElements" style="text;html=1;strokeColor=none;fillColor=none;spacingLeft=4;spacingRight=4;whiteSpace=wrap;overflow=hidden;rotatable=0;points=[[0,0.5],[1,0.5]];portConstraint=eastwest;" vertex="1" parent="21ea969265ad0168-6">
          <mxGeometry y="286" width="170" height="26" as="geometry" />
        </mxCell>
        <mxCell id="Bp7dpj_Du3zE_bN5RIQy-91" value="report" style="text;html=1;strokeColor=none;fillColor=none;spacingLeft=4;spacingRight=4;whiteSpace=wrap;overflow=hidden;rotatable=0;points=[[0,0.5],[1,0.5]];portConstraint=eastwest;" vertex="1" parent="21ea969265ad0168-6">
          <mxGeometry y="312" width="170" height="26" as="geometry" />
        </mxCell>
        <mxCell id="Bp7dpj_Du3zE_bN5RIQy-92" value="..." style="text;html=1;strokeColor=none;fillColor=none;spacingLeft=4;spacingRight=4;whiteSpace=wrap;overflow=hidden;rotatable=0;points=[[0,0.5],[1,0.5]];portConstraint=eastwest;" vertex="1" parent="21ea969265ad0168-6">
          <mxGeometry y="338" width="170" height="26" as="geometry" />
        </mxCell>
        <mxCell id="Bp7dpj_Du3zE_bN5RIQy-18" value="" style="endArrow=classic;html=1;rounded=0;entryX=0;entryY=0.077;entryDx=0;entryDy=0;entryPerimeter=0;" edge="1" parent="1" source="Bp7dpj_Du3zE_bN5RIQy-15">
          <mxGeometry width="50" height="50" relative="1" as="geometry">
            <mxPoint x="520" y="330" as="sourcePoint" />
            <mxPoint x="500" y="90.01599999999996" as="targetPoint" />
            <Array as="points">
              <mxPoint x="430" y="190" />
              <mxPoint x="430" y="90" />
            </Array>
          </mxGeometry>
        </mxCell>
        <mxCell id="Bp7dpj_Du3zE_bN5RIQy-19" value="joints" style="swimlane;html=1;fontStyle=0;childLayout=stackLayout;horizontal=1;startSize=26;fillColor=#e0e0e0;horizontalStack=0;resizeParent=1;resizeLast=0;collapsible=1;marginBottom=0;swimlaneFillColor=#ffffff;align=center;rounded=1;shadow=0;comic=0;labelBackgroundColor=none;strokeWidth=1;fontFamily=Verdana;fontSize=12" vertex="1" parent="1">
          <mxGeometry x="500" y="74" width="170" height="186" as="geometry" />
        </mxCell>
        <mxCell id="Bp7dpj_Du3zE_bN5RIQy-20" value="id" style="text;html=1;strokeColor=none;fillColor=none;spacingLeft=4;spacingRight=4;whiteSpace=wrap;overflow=hidden;rotatable=0;points=[[0,0.5],[1,0.5]];portConstraint=eastwest;" vertex="1" parent="Bp7dpj_Du3zE_bN5RIQy-19">
          <mxGeometry y="26" width="170" height="26" as="geometry" />
        </mxCell>
        <mxCell id="Bp7dpj_Du3zE_bN5RIQy-25" value="neck_joint" style="text;html=1;strokeColor=none;fillColor=none;spacingLeft=4;spacingRight=4;whiteSpace=wrap;overflow=hidden;rotatable=0;points=[[0,0.5],[1,0.5]];portConstraint=eastwest;" vertex="1" parent="Bp7dpj_Du3zE_bN5RIQy-19">
          <mxGeometry y="52" width="170" height="26" as="geometry" />
        </mxCell>
        <mxCell id="Bp7dpj_Du3zE_bN5RIQy-26" value="right_clavicle_joint" style="text;html=1;strokeColor=none;fillColor=none;spacingLeft=4;spacingRight=4;whiteSpace=wrap;overflow=hidden;rotatable=0;points=[[0,0.5],[1,0.5]];portConstraint=eastwest;" vertex="1" parent="Bp7dpj_Du3zE_bN5RIQy-19">
          <mxGeometry y="78" width="170" height="26" as="geometry" />
        </mxCell>
        <mxCell id="Bp7dpj_Du3zE_bN5RIQy-27" value="left_clavicle_joint" style="text;html=1;strokeColor=none;fillColor=none;spacingLeft=4;spacingRight=4;whiteSpace=wrap;overflow=hidden;rotatable=0;points=[[0,0.5],[1,0.5]];portConstraint=eastwest;" vertex="1" parent="Bp7dpj_Du3zE_bN5RIQy-19">
          <mxGeometry y="104" width="170" height="26" as="geometry" />
        </mxCell>
        <mxCell id="Bp7dpj_Du3zE_bN5RIQy-28" value="..." style="text;html=1;strokeColor=none;fillColor=none;spacingLeft=4;spacingRight=4;whiteSpace=wrap;overflow=hidden;rotatable=0;points=[[0,0.5],[1,0.5]];portConstraint=eastwest;" vertex="1" parent="Bp7dpj_Du3zE_bN5RIQy-19">
          <mxGeometry y="130" width="170" height="26" as="geometry" />
        </mxCell>
        <mxCell id="Bp7dpj_Du3zE_bN5RIQy-29" value="pelivs_joint" style="text;html=1;strokeColor=none;fillColor=none;spacingLeft=4;spacingRight=4;whiteSpace=wrap;overflow=hidden;rotatable=0;points=[[0,0.5],[1,0.5]];portConstraint=eastwest;" vertex="1" parent="Bp7dpj_Du3zE_bN5RIQy-19">
          <mxGeometry y="156" width="170" height="26" as="geometry" />
        </mxCell>
        <mxCell id="Bp7dpj_Du3zE_bN5RIQy-30" value="jointsData" style="swimlane;html=1;fontStyle=0;childLayout=stackLayout;horizontal=1;startSize=26;fillColor=#e0e0e0;horizontalStack=0;resizeParent=1;resizeLast=0;collapsible=1;marginBottom=0;swimlaneFillColor=#ffffff;align=center;rounded=1;shadow=0;comic=0;labelBackgroundColor=none;strokeWidth=1;fontFamily=Verdana;fontSize=12" vertex="1" parent="1">
          <mxGeometry x="780" y="74" width="170" height="186" as="geometry" />
        </mxCell>
        <mxCell id="Bp7dpj_Du3zE_bN5RIQy-46" value="" style="endArrow=classic;html=1;rounded=0;entryX=0;entryY=0.059;entryDx=0;entryDy=0;entryPerimeter=0;" edge="1" parent="Bp7dpj_Du3zE_bN5RIQy-30" target="Bp7dpj_Du3zE_bN5RIQy-30">
          <mxGeometry width="50" height="50" relative="1" as="geometry">
            <mxPoint x="-110" y="61" as="sourcePoint" />
            <mxPoint x="110" y="-13.984000000000037" as="targetPoint" />
            <Array as="points">
              <mxPoint x="-60" y="61" />
              <mxPoint x="-60" y="11" />
            </Array>
          </mxGeometry>
        </mxCell>
        <mxCell id="Bp7dpj_Du3zE_bN5RIQy-31" value="id" style="text;html=1;strokeColor=none;fillColor=none;spacingLeft=4;spacingRight=4;whiteSpace=wrap;overflow=hidden;rotatable=0;points=[[0,0.5],[1,0.5]];portConstraint=eastwest;" vertex="1" parent="Bp7dpj_Du3zE_bN5RIQy-30">
          <mxGeometry y="26" width="170" height="26" as="geometry" />
        </mxCell>
        <mxCell id="Bp7dpj_Du3zE_bN5RIQy-41" value="rot_1" style="text;html=1;strokeColor=none;fillColor=none;spacingLeft=4;spacingRight=4;whiteSpace=wrap;overflow=hidden;rotatable=0;points=[[0,0.5],[1,0.5]];portConstraint=eastwest;" vertex="1" parent="Bp7dpj_Du3zE_bN5RIQy-30">
          <mxGeometry y="52" width="170" height="26" as="geometry" />
        </mxCell>
        <mxCell id="Bp7dpj_Du3zE_bN5RIQy-42" value="&lt;div&gt;rot_2&lt;/div&gt;&lt;div&gt;&lt;br&gt;&lt;/div&gt;" style="text;html=1;strokeColor=none;fillColor=none;spacingLeft=4;spacingRight=4;whiteSpace=wrap;overflow=hidden;rotatable=0;points=[[0,0.5],[1,0.5]];portConstraint=eastwest;" vertex="1" parent="Bp7dpj_Du3zE_bN5RIQy-30">
          <mxGeometry y="78" width="170" height="26" as="geometry" />
        </mxCell>
        <mxCell id="Bp7dpj_Du3zE_bN5RIQy-43" value="&lt;div&gt;rot_3&lt;/div&gt;&lt;div&gt;&lt;br&gt;&lt;/div&gt;" style="text;html=1;strokeColor=none;fillColor=none;spacingLeft=4;spacingRight=4;whiteSpace=wrap;overflow=hidden;rotatable=0;points=[[0,0.5],[1,0.5]];portConstraint=eastwest;" vertex="1" parent="Bp7dpj_Du3zE_bN5RIQy-30">
          <mxGeometry y="104" width="170" height="26" as="geometry" />
        </mxCell>
        <mxCell id="Bp7dpj_Du3zE_bN5RIQy-44" value="..." style="text;html=1;strokeColor=none;fillColor=none;spacingLeft=4;spacingRight=4;whiteSpace=wrap;overflow=hidden;rotatable=0;points=[[0,0.5],[1,0.5]];portConstraint=eastwest;" vertex="1" parent="Bp7dpj_Du3zE_bN5RIQy-30">
          <mxGeometry y="130" width="170" height="26" as="geometry" />
        </mxCell>
        <mxCell id="Bp7dpj_Du3zE_bN5RIQy-45" value="totalTorque_3" style="text;html=1;strokeColor=none;fillColor=none;spacingLeft=4;spacingRight=4;whiteSpace=wrap;overflow=hidden;rotatable=0;points=[[0,0.5],[1,0.5]];portConstraint=eastwest;" vertex="1" parent="Bp7dpj_Du3zE_bN5RIQy-30">
          <mxGeometry y="156" width="170" height="26" as="geometry" />
        </mxCell>
        <mxCell id="Bp7dpj_Du3zE_bN5RIQy-48" value="" style="endArrow=none;html=1;rounded=0;fontFamily=Helvetica;fontSize=12;fontColor=default;" edge="1" parent="1" target="Bp7dpj_Du3zE_bN5RIQy-26">
          <mxGeometry width="50" height="50" relative="1" as="geometry">
            <mxPoint x="720" y="165" as="sourcePoint" />
            <mxPoint x="730" y="100" as="targetPoint" />
          </mxGeometry>
        </mxCell>
        <mxCell id="Bp7dpj_Du3zE_bN5RIQy-49" value="" style="endArrow=none;html=1;rounded=0;fontFamily=Helvetica;fontSize=12;fontColor=default;" edge="1" parent="1" target="Bp7dpj_Du3zE_bN5RIQy-27">
          <mxGeometry width="50" height="50" relative="1" as="geometry">
            <mxPoint x="720" y="191" as="sourcePoint" />
            <mxPoint x="680" y="175" as="targetPoint" />
          </mxGeometry>
        </mxCell>
        <mxCell id="Bp7dpj_Du3zE_bN5RIQy-52" value="" style="endArrow=none;html=1;rounded=0;fontFamily=Helvetica;fontSize=12;fontColor=default;" edge="1" parent="1" source="Bp7dpj_Du3zE_bN5RIQy-29">
          <mxGeometry width="50" height="50" relative="1" as="geometry">
            <mxPoint x="640" y="250" as="sourcePoint" />
            <mxPoint x="720" y="90" as="targetPoint" />
            <Array as="points">
              <mxPoint x="720" y="243" />
            </Array>
          </mxGeometry>
        </mxCell>
        <mxCell id="Bp7dpj_Du3zE_bN5RIQy-53" value="muscleGroups" style="swimlane;html=1;fontStyle=0;childLayout=stackLayout;horizontal=1;startSize=26;fillColor=#e0e0e0;horizontalStack=0;resizeParent=1;resizeLast=0;collapsible=1;marginBottom=0;swimlaneFillColor=#ffffff;align=center;rounded=1;shadow=0;comic=0;labelBackgroundColor=none;strokeWidth=1;fontFamily=Verdana;fontSize=12" vertex="1" parent="1">
          <mxGeometry x="500" y="290" width="170" height="182" as="geometry" />
        </mxCell>
        <mxCell id="Bp7dpj_Du3zE_bN5RIQy-54" value="id" style="text;html=1;strokeColor=none;fillColor=none;spacingLeft=4;spacingRight=4;whiteSpace=wrap;overflow=hidden;rotatable=0;points=[[0,0.5],[1,0.5]];portConstraint=eastwest;" vertex="1" parent="Bp7dpj_Du3zE_bN5RIQy-53">
          <mxGeometry y="26" width="170" height="26" as="geometry" />
        </mxCell>
        <mxCell id="Bp7dpj_Du3zE_bN5RIQy-55" value="tibialis_anterior_right" style="text;html=1;strokeColor=none;fillColor=none;spacingLeft=4;spacingRight=4;whiteSpace=wrap;overflow=hidden;rotatable=0;points=[[0,0.5],[1,0.5]];portConstraint=eastwest;" vertex="1" parent="Bp7dpj_Du3zE_bN5RIQy-53">
          <mxGeometry y="52" width="170" height="26" as="geometry" />
        </mxCell>
        <mxCell id="Bp7dpj_Du3zE_bN5RIQy-56" value="tibialis_anterior_left" style="text;html=1;strokeColor=none;fillColor=none;spacingLeft=4;spacingRight=4;whiteSpace=wrap;overflow=hidden;rotatable=0;points=[[0,0.5],[1,0.5]];portConstraint=eastwest;" vertex="1" parent="Bp7dpj_Du3zE_bN5RIQy-53">
          <mxGeometry y="78" width="170" height="26" as="geometry" />
        </mxCell>
        <mxCell id="Bp7dpj_Du3zE_bN5RIQy-61" value="extensor_hallucis_longus_right" style="text;html=1;strokeColor=none;fillColor=none;spacingLeft=4;spacingRight=4;whiteSpace=wrap;overflow=hidden;rotatable=0;points=[[0,0.5],[1,0.5]];portConstraint=eastwest;" vertex="1" parent="Bp7dpj_Du3zE_bN5RIQy-53">
          <mxGeometry y="104" width="170" height="26" as="geometry" />
        </mxCell>
        <mxCell id="Bp7dpj_Du3zE_bN5RIQy-62" value="..." style="text;html=1;strokeColor=none;fillColor=none;spacingLeft=4;spacingRight=4;whiteSpace=wrap;overflow=hidden;rotatable=0;points=[[0,0.5],[1,0.5]];portConstraint=eastwest;" vertex="1" parent="Bp7dpj_Du3zE_bN5RIQy-53">
          <mxGeometry y="130" width="170" height="26" as="geometry" />
        </mxCell>
        <mxCell id="Bp7dpj_Du3zE_bN5RIQy-63" value="obliquus_internus_right" style="text;html=1;strokeColor=none;fillColor=none;spacingLeft=4;spacingRight=4;whiteSpace=wrap;overflow=hidden;rotatable=0;points=[[0,0.5],[1,0.5]];portConstraint=eastwest;" vertex="1" parent="Bp7dpj_Du3zE_bN5RIQy-53">
          <mxGeometry y="156" width="170" height="26" as="geometry" />
        </mxCell>
        <mxCell id="Bp7dpj_Du3zE_bN5RIQy-60" value="" style="endArrow=classic;html=1;rounded=0;entryX=0.006;entryY=0.097;entryDx=0;entryDy=0;entryPerimeter=0;" edge="1" parent="1" source="Bp7dpj_Du3zE_bN5RIQy-16" target="Bp7dpj_Du3zE_bN5RIQy-53">
          <mxGeometry width="50" height="50" relative="1" as="geometry">
            <mxPoint x="290" y="175" as="sourcePoint" />
            <mxPoint x="510" y="100.01599999999996" as="targetPoint" />
            <Array as="points">
              <mxPoint x="430" y="217" />
              <mxPoint x="430" y="308" />
            </Array>
          </mxGeometry>
        </mxCell>
        <mxCell id="Bp7dpj_Du3zE_bN5RIQy-64" value="muscleGroupsData" style="swimlane;html=1;fontStyle=0;childLayout=stackLayout;horizontal=1;startSize=26;fillColor=#e0e0e0;horizontalStack=0;resizeParent=1;resizeLast=0;collapsible=1;marginBottom=0;swimlaneFillColor=#ffffff;align=center;rounded=1;shadow=0;comic=0;labelBackgroundColor=none;strokeWidth=1;fontFamily=Verdana;fontSize=12" vertex="1" parent="1">
          <mxGeometry x="780" y="290" width="170" height="186" as="geometry" />
        </mxCell>
        <mxCell id="Bp7dpj_Du3zE_bN5RIQy-66" value="id" style="text;html=1;strokeColor=none;fillColor=none;spacingLeft=4;spacingRight=4;whiteSpace=wrap;overflow=hidden;rotatable=0;points=[[0,0.5],[1,0.5]];portConstraint=eastwest;" vertex="1" parent="Bp7dpj_Du3zE_bN5RIQy-64">
          <mxGeometry y="26" width="170" height="26" as="geometry" />
        </mxCell>
        <mxCell id="Bp7dpj_Du3zE_bN5RIQy-70" value="activation" style="text;html=1;strokeColor=none;fillColor=none;spacingLeft=4;spacingRight=4;whiteSpace=wrap;overflow=hidden;rotatable=0;points=[[0,0.5],[1,0.5]];portConstraint=eastwest;" vertex="1" parent="Bp7dpj_Du3zE_bN5RIQy-64">
          <mxGeometry y="52" width="170" height="26" as="geometry" />
        </mxCell>
        <mxCell id="Bp7dpj_Du3zE_bN5RIQy-71" value="force" style="text;html=1;strokeColor=none;fillColor=none;spacingLeft=4;spacingRight=4;whiteSpace=wrap;overflow=hidden;rotatable=0;points=[[0,0.5],[1,0.5]];portConstraint=eastwest;" vertex="1" parent="Bp7dpj_Du3zE_bN5RIQy-64">
          <mxGeometry y="78" width="170" height="26" as="geometry" />
        </mxCell>
        <mxCell id="Bp7dpj_Du3zE_bN5RIQy-72" value="relative_force" style="text;html=1;strokeColor=none;fillColor=none;spacingLeft=4;spacingRight=4;whiteSpace=wrap;overflow=hidden;rotatable=0;points=[[0,0.5],[1,0.5]];portConstraint=eastwest;" vertex="1" parent="Bp7dpj_Du3zE_bN5RIQy-64">
          <mxGeometry y="104" width="170" height="26" as="geometry" />
        </mxCell>
        <mxCell id="Bp7dpj_Du3zE_bN5RIQy-79" value="" style="endArrow=classic;html=1;rounded=0;fontFamily=Helvetica;fontSize=12;fontColor=default;entryX=-0.024;entryY=0.075;entryDx=0;entryDy=0;entryPerimeter=0;" edge="1" parent="1" source="Bp7dpj_Du3zE_bN5RIQy-55" target="Bp7dpj_Du3zE_bN5RIQy-64">
          <mxGeometry width="50" height="50" relative="1" as="geometry">
            <mxPoint x="760" y="280" as="sourcePoint" />
            <mxPoint x="810" y="230" as="targetPoint" />
            <Array as="points">
              <mxPoint x="720" y="355" />
              <mxPoint x="720" y="304" />
            </Array>
          </mxGeometry>
        </mxCell>
        <mxCell id="Bp7dpj_Du3zE_bN5RIQy-80" value="" style="endArrow=none;html=1;rounded=0;fontFamily=Helvetica;fontSize=12;fontColor=default;" edge="1" parent="1">
          <mxGeometry width="50" height="50" relative="1" as="geometry">
            <mxPoint x="669.9999999999998" y="459.4999999999999" as="sourcePoint" />
            <mxPoint x="719.9999999999998" y="306.5" as="targetPoint" />
            <Array as="points">
              <mxPoint x="720" y="459.5" />
            </Array>
          </mxGeometry>
        </mxCell>
        <mxCell id="Bp7dpj_Du3zE_bN5RIQy-84" value="" style="endArrow=none;html=1;rounded=0;fontFamily=Helvetica;fontSize=12;fontColor=default;" edge="1" parent="1">
          <mxGeometry width="50" height="50" relative="1" as="geometry">
            <mxPoint x="719.9999999999998" y="380" as="sourcePoint" />
            <mxPoint x="669.9999999999998" y="380" as="targetPoint" />
          </mxGeometry>
        </mxCell>
        <mxCell id="Bp7dpj_Du3zE_bN5RIQy-85" value="" style="endArrow=none;html=1;rounded=0;fontFamily=Helvetica;fontSize=12;fontColor=default;" edge="1" parent="1">
          <mxGeometry width="50" height="50" relative="1" as="geometry">
            <mxPoint x="719.9999999999998" y="406" as="sourcePoint" />
            <mxPoint x="669.9999999999998" y="406" as="targetPoint" />
          </mxGeometry>
        </mxCell>
        <mxCell id="Bp7dpj_Du3zE_bN5RIQy-95" value="Person" style="swimlane;html=1;fontStyle=0;childLayout=stackLayout;horizontal=1;startSize=26;fillColor=#e0e0e0;horizontalStack=0;resizeParent=1;resizeLast=0;collapsible=1;marginBottom=0;swimlaneFillColor=#ffffff;align=center;rounded=1;shadow=0;comic=0;labelBackgroundColor=none;strokeWidth=1;fontFamily=Verdana;fontSize=12" vertex="1" parent="1">
          <mxGeometry x="-70" y="74" width="170" height="322" as="geometry" />
        </mxCell>
        <mxCell id="Bp7dpj_Du3zE_bN5RIQy-110" value="id" style="text;html=1;strokeColor=none;fillColor=none;spacingLeft=4;spacingRight=4;whiteSpace=wrap;overflow=hidden;rotatable=0;points=[[0,0.5],[1,0.5]];portConstraint=eastwest;" vertex="1" parent="Bp7dpj_Du3zE_bN5RIQy-95">
          <mxGeometry y="26" width="170" height="26" as="geometry" />
        </mxCell>
        <mxCell id="Bp7dpj_Du3zE_bN5RIQy-113" value="FirstName" style="text;html=1;strokeColor=none;fillColor=none;spacingLeft=4;spacingRight=4;whiteSpace=wrap;overflow=hidden;rotatable=0;points=[[0,0.5],[1,0.5]];portConstraint=eastwest;" vertex="1" parent="Bp7dpj_Du3zE_bN5RIQy-95">
          <mxGeometry y="52" width="170" height="26" as="geometry" />
        </mxCell>
        <mxCell id="Bp7dpj_Du3zE_bN5RIQy-114" value="LastName" style="text;html=1;strokeColor=none;fillColor=none;spacingLeft=4;spacingRight=4;whiteSpace=wrap;overflow=hidden;rotatable=0;points=[[0,0.5],[1,0.5]];portConstraint=eastwest;" vertex="1" parent="Bp7dpj_Du3zE_bN5RIQy-95">
          <mxGeometry y="78" width="170" height="26" as="geometry" />
        </mxCell>
        <mxCell id="Bp7dpj_Du3zE_bN5RIQy-119" value="DoB" style="text;html=1;strokeColor=none;fillColor=none;spacingLeft=4;spacingRight=4;whiteSpace=wrap;overflow=hidden;rotatable=0;points=[[0,0.5],[1,0.5]];portConstraint=eastwest;" vertex="1" parent="Bp7dpj_Du3zE_bN5RIQy-95">
          <mxGeometry y="104" width="170" height="26" as="geometry" />
        </mxCell>
        <mxCell id="Bp7dpj_Du3zE_bN5RIQy-115" value="..." style="text;html=1;strokeColor=none;fillColor=none;spacingLeft=4;spacingRight=4;whiteSpace=wrap;overflow=hidden;rotatable=0;points=[[0,0.5],[1,0.5]];portConstraint=eastwest;" vertex="1" parent="Bp7dpj_Du3zE_bN5RIQy-95">
          <mxGeometry y="130" width="170" height="26" as="geometry" />
        </mxCell>
        <mxCell id="Bp7dpj_Du3zE_bN5RIQy-116" value="Movements" style="text;html=1;strokeColor=none;fillColor=none;spacingLeft=4;spacingRight=4;whiteSpace=wrap;overflow=hidden;rotatable=0;points=[[0,0.5],[1,0.5]];portConstraint=eastwest;" vertex="1" parent="Bp7dpj_Du3zE_bN5RIQy-95">
          <mxGeometry y="156" width="170" height="26" as="geometry" />
        </mxCell>
        <mxCell id="Bp7dpj_Du3zE_bN5RIQy-118" value="&lt;div&gt;&lt;span style=&quot;white-space: pre;&quot;&gt;	&lt;/span&gt;- SimdataId (1)&lt;br&gt;&lt;/div&gt;" style="text;html=1;strokeColor=none;fillColor=none;spacingLeft=4;spacingRight=4;whiteSpace=wrap;overflow=hidden;rotatable=0;points=[[0,0.5],[1,0.5]];portConstraint=eastwest;" vertex="1" parent="Bp7dpj_Du3zE_bN5RIQy-95">
          <mxGeometry y="182" width="170" height="28" as="geometry" />
        </mxCell>
        <mxCell id="Bp7dpj_Du3zE_bN5RIQy-120" value="&lt;div&gt;&lt;span style=&quot;white-space: pre;&quot;&gt;	&lt;/span&gt;- SimdataId (2)&lt;br&gt;&lt;/div&gt;" style="text;html=1;strokeColor=none;fillColor=none;spacingLeft=4;spacingRight=4;whiteSpace=wrap;overflow=hidden;rotatable=0;points=[[0,0.5],[1,0.5]];portConstraint=eastwest;" vertex="1" parent="Bp7dpj_Du3zE_bN5RIQy-95">
          <mxGeometry y="210" width="170" height="28" as="geometry" />
        </mxCell>
        <mxCell id="Bp7dpj_Du3zE_bN5RIQy-129" value="" style="endArrow=none;html=1;rounded=0;fontFamily=Helvetica;fontSize=12;fontColor=default;" edge="1" parent="Bp7dpj_Du3zE_bN5RIQy-95" target="Bp7dpj_Du3zE_bN5RIQy-120">
          <mxGeometry width="50" height="50" relative="1" as="geometry">
            <mxPoint x="210" y="226" as="sourcePoint" />
            <mxPoint x="160" y="226" as="targetPoint" />
          </mxGeometry>
        </mxCell>
        <mxCell id="Bp7dpj_Du3zE_bN5RIQy-130" value="" style="endArrow=none;html=1;rounded=0;fontFamily=Helvetica;fontSize=12;fontColor=default;" edge="1" parent="Bp7dpj_Du3zE_bN5RIQy-95" target="Bp7dpj_Du3zE_bN5RIQy-121">
          <mxGeometry width="50" height="50" relative="1" as="geometry">
            <mxPoint x="210" y="251.9999999999999" as="sourcePoint" />
            <mxPoint x="160" y="251.9999999999999" as="targetPoint" />
          </mxGeometry>
        </mxCell>
        <mxCell id="Bp7dpj_Du3zE_bN5RIQy-121" value="&lt;div&gt;&lt;span style=&quot;white-space: pre;&quot;&gt;	&lt;/span&gt;- SimdataID (3)&lt;br&gt;&lt;/div&gt;" style="text;html=1;strokeColor=none;fillColor=none;spacingLeft=4;spacingRight=4;whiteSpace=wrap;overflow=hidden;rotatable=0;points=[[0,0.5],[1,0.5]];portConstraint=eastwest;" vertex="1" parent="Bp7dpj_Du3zE_bN5RIQy-95">
          <mxGeometry y="238" width="170" height="28" as="geometry" />
        </mxCell>
        <mxCell id="Bp7dpj_Du3zE_bN5RIQy-122" value="&lt;div&gt;&lt;span style=&quot;white-space: pre;&quot;&gt;	&lt;/span&gt;- ....&lt;br&gt;&lt;/div&gt;" style="text;html=1;strokeColor=none;fillColor=none;spacingLeft=4;spacingRight=4;whiteSpace=wrap;overflow=hidden;rotatable=0;points=[[0,0.5],[1,0.5]];portConstraint=eastwest;" vertex="1" parent="Bp7dpj_Du3zE_bN5RIQy-95">
          <mxGeometry y="266" width="170" height="28" as="geometry" />
        </mxCell>
        <mxCell id="Bp7dpj_Du3zE_bN5RIQy-123" value="&lt;div&gt;&lt;span style=&quot;white-space: pre;&quot;&gt;	&lt;/span&gt;- SimdataId (n)&lt;br&gt;&lt;/div&gt;" style="text;html=1;strokeColor=none;fillColor=none;spacingLeft=4;spacingRight=4;whiteSpace=wrap;overflow=hidden;rotatable=0;points=[[0,0.5],[1,0.5]];portConstraint=eastwest;" vertex="1" parent="Bp7dpj_Du3zE_bN5RIQy-95">
          <mxGeometry y="294" width="170" height="28" as="geometry" />
        </mxCell>
        <mxCell id="Bp7dpj_Du3zE_bN5RIQy-124" value="" style="endArrow=classic;html=1;rounded=0;entryX=-0.004;entryY=0.043;entryDx=0;entryDy=0;entryPerimeter=0;" edge="1" parent="1" source="Bp7dpj_Du3zE_bN5RIQy-118" target="21ea969265ad0168-6">
          <mxGeometry width="50" height="50" relative="1" as="geometry">
            <mxPoint x="380" y="200.58536585365857" as="sourcePoint" />
            <mxPoint x="190" y="90" as="targetPoint" />
            <Array as="points">
              <mxPoint x="140" y="270" />
              <mxPoint x="140" y="150" />
              <mxPoint x="140" y="90" />
            </Array>
          </mxGeometry>
        </mxCell>
        <mxCell id="Bp7dpj_Du3zE_bN5RIQy-125" value="" style="endArrow=none;html=1;rounded=0;fontFamily=Helvetica;fontSize=12;fontColor=default;" edge="1" parent="1" source="Bp7dpj_Du3zE_bN5RIQy-123">
          <mxGeometry width="50" height="50" relative="1" as="geometry">
            <mxPoint x="130" y="300" as="sourcePoint" />
            <mxPoint x="200" y="90" as="targetPoint" />
            <Array as="points">
              <mxPoint x="140" y="382" />
              <mxPoint x="140" y="90" />
            </Array>
          </mxGeometry>
        </mxCell>
        <mxCell id="Bp7dpj_Du3zE_bN5RIQy-132" value="(Project)" style="swimlane;html=1;fontStyle=0;childLayout=stackLayout;horizontal=1;startSize=26;fillColor=#e0e0e0;horizontalStack=0;resizeParent=1;resizeLast=0;collapsible=1;marginBottom=0;swimlaneFillColor=#ffffff;align=center;rounded=1;shadow=0;comic=0;labelBackgroundColor=none;strokeWidth=1;fontFamily=Verdana;fontSize=12" vertex="1" parent="1">
          <mxGeometry x="-350" y="74" width="170" height="306" as="geometry" />
        </mxCell>
        <mxCell id="Bp7dpj_Du3zE_bN5RIQy-133" value="id" style="text;html=1;strokeColor=none;fillColor=none;spacingLeft=4;spacingRight=4;whiteSpace=wrap;overflow=hidden;rotatable=0;points=[[0,0.5],[1,0.5]];portConstraint=eastwest;" vertex="1" parent="Bp7dpj_Du3zE_bN5RIQy-132">
          <mxGeometry y="26" width="170" height="26" as="geometry" />
        </mxCell>
        <mxCell id="Bp7dpj_Du3zE_bN5RIQy-143" value="&lt;div&gt;ProjectName&lt;/div&gt;" style="text;html=1;strokeColor=none;fillColor=none;spacingLeft=4;spacingRight=4;whiteSpace=wrap;overflow=hidden;rotatable=0;points=[[0,0.5],[1,0.5]];portConstraint=eastwest;" vertex="1" parent="Bp7dpj_Du3zE_bN5RIQy-132">
          <mxGeometry y="52" width="170" height="28" as="geometry" />
        </mxCell>
        <mxCell id="Bp7dpj_Du3zE_bN5RIQy-146" value="ProjectMetaData" style="text;html=1;strokeColor=none;fillColor=none;spacingLeft=4;spacingRight=4;whiteSpace=wrap;overflow=hidden;rotatable=0;points=[[0,0.5],[1,0.5]];portConstraint=eastwest;" vertex="1" parent="Bp7dpj_Du3zE_bN5RIQy-132">
          <mxGeometry y="80" width="170" height="28" as="geometry" />
        </mxCell>
        <mxCell id="Bp7dpj_Du3zE_bN5RIQy-147" value="...." style="text;html=1;strokeColor=none;fillColor=none;spacingLeft=4;spacingRight=4;whiteSpace=wrap;overflow=hidden;rotatable=0;points=[[0,0.5],[1,0.5]];portConstraint=eastwest;" vertex="1" parent="Bp7dpj_Du3zE_bN5RIQy-132">
          <mxGeometry y="108" width="170" height="28" as="geometry" />
        </mxCell>
        <mxCell id="Bp7dpj_Du3zE_bN5RIQy-148" value="Persons []" style="text;html=1;strokeColor=none;fillColor=none;spacingLeft=4;spacingRight=4;whiteSpace=wrap;overflow=hidden;rotatable=0;points=[[0,0.5],[1,0.5]];portConstraint=eastwest;" vertex="1" parent="Bp7dpj_Du3zE_bN5RIQy-132">
          <mxGeometry y="136" width="170" height="28" as="geometry" />
        </mxCell>
        <mxCell id="Bp7dpj_Du3zE_bN5RIQy-149" value="&lt;span style=&quot;white-space: pre;&quot;&gt;	&lt;/span&gt;- PersonId (1)" style="text;html=1;strokeColor=none;fillColor=none;spacingLeft=4;spacingRight=4;whiteSpace=wrap;overflow=hidden;rotatable=0;points=[[0,0.5],[1,0.5]];portConstraint=eastwest;" vertex="1" parent="Bp7dpj_Du3zE_bN5RIQy-132">
          <mxGeometry y="164" width="170" height="28" as="geometry" />
        </mxCell>
        <mxCell id="Bp7dpj_Du3zE_bN5RIQy-150" value="&lt;span style=&quot;white-space: pre;&quot;&gt;	&lt;/span&gt;- PersonId (2)" style="text;html=1;strokeColor=none;fillColor=none;spacingLeft=4;spacingRight=4;whiteSpace=wrap;overflow=hidden;rotatable=0;points=[[0,0.5],[1,0.5]];portConstraint=eastwest;" vertex="1" parent="Bp7dpj_Du3zE_bN5RIQy-132">
          <mxGeometry y="192" width="170" height="28" as="geometry" />
        </mxCell>
        <mxCell id="Bp7dpj_Du3zE_bN5RIQy-151" value="&lt;span style=&quot;white-space: pre;&quot;&gt;	&lt;/span&gt;- PersonId (3)" style="text;html=1;strokeColor=none;fillColor=none;spacingLeft=4;spacingRight=4;whiteSpace=wrap;overflow=hidden;rotatable=0;points=[[0,0.5],[1,0.5]];portConstraint=eastwest;" vertex="1" parent="Bp7dpj_Du3zE_bN5RIQy-132">
          <mxGeometry y="220" width="170" height="28" as="geometry" />
        </mxCell>
        <mxCell id="Bp7dpj_Du3zE_bN5RIQy-152" value="&lt;span style=&quot;white-space: pre;&quot;&gt;	&lt;/span&gt;- ..." style="text;html=1;strokeColor=none;fillColor=none;spacingLeft=4;spacingRight=4;whiteSpace=wrap;overflow=hidden;rotatable=0;points=[[0,0.5],[1,0.5]];portConstraint=eastwest;" vertex="1" parent="Bp7dpj_Du3zE_bN5RIQy-132">
          <mxGeometry y="248" width="170" height="28" as="geometry" />
        </mxCell>
        <mxCell id="Bp7dpj_Du3zE_bN5RIQy-154" value="&lt;span style=&quot;white-space: pre;&quot;&gt;	&lt;/span&gt;- PersonId (n)" style="text;html=1;strokeColor=none;fillColor=none;spacingLeft=4;spacingRight=4;whiteSpace=wrap;overflow=hidden;rotatable=0;points=[[0,0.5],[1,0.5]];portConstraint=eastwest;" vertex="1" parent="Bp7dpj_Du3zE_bN5RIQy-132">
          <mxGeometry y="276" width="170" height="28" as="geometry" />
        </mxCell>
      </root>
    </mxGraphModel>
  </diagram>
</mxfile>
